<svg xmlns="http://www.w3.org/2000/svg" viewBox="0 0 40 40" class="design-iconfont"><defs><linearGradient x1="50%" y1="0%" x2="50%" y2="100%" id="a"><stop stop-color="#7D66F2" offset="0%"/><stop stop-color="#4F3DF5" offset="100%"/></linearGradient></defs><path d="M8.884 18.54c.197 0 .395.04.573.138l9.514 3.62c.337.118.693.178 1.148.178.573 0 .83-.08.95-.139l9.77-3.758.02.06c.08-.02.178-.02.257-.02.732 0 1.326.593 1.326 1.285v9.693c.04 1.068-.337 2.037-1.128 2.868-2.215 2.314-7.22 3.145-11.176 3.145-5.835 0-12.243-1.8-12.56-5.776v-9.989c0-.712.574-1.305 1.306-1.305zm1.305 3.204v7.872c.138 1.8 4.787 3.383 9.93 3.383 4.154 0 7.971-.95 9.296-2.334.277-.297.416-.574.396-.87v-8.031l-7.734 2.967c-.475.217-1.147.336-1.958.336a6.28 6.28 0 01-2.038-.316l-7.892-3.007zm24.27 1.266a1.305 1.305 0 110 2.61 1.305 1.305 0 010-2.61zM17.923 5.326c1.128-.435 3.046-.435 4.174 0l14.063 5.4c1.603.633 1.84 1.682 1.84 2.236 0 .553-.237 1.582-1.82 2.235l-.415.158v5.598c0 .712-.594 1.305-1.306 1.305a1.304 1.304 0 01-1.305-1.305v-4.609l-11.077 4.253c-.475.217-1.147.336-1.958.336a6.196 6.196 0 01-2.038-.317L3.84 15.196C2.237 14.545 2 13.517 2 12.963s.237-1.603 1.82-2.236zm3.224 2.414c-.534-.218-1.76-.218-2.294 0l-13.53 5.202 13.648 5.202c.337.119.693.178 1.148.178.554 0 .83-.08.95-.138h.019l13.589-5.222z" fill="url(#a)" fill-rule="evenodd"/></svg>