<svg xmlns="http://www.w3.org/2000/svg" viewBox="0 0 40 40" class="design-iconfont"><defs><linearGradient x1="50%" y1="0%" x2="50%" y2="100%" id="a"><stop stop-color="#7D66F2" offset="0%"/><stop stop-color="#4F3DF5" offset="100%"/></linearGradient></defs><path d="M20.05 2c1.123 0 2.13.227 2.998.677.293.15 1.874.894 10.07 4.442l.093.044c1.811.934 2.767 2.424 2.767 4.31v9.54c.368 7.133-3.928 12.498-12.774 15.943l-.298.107a38.33 38.33 0 01-1.61.582L19.96 38l-1.335-.359a51.154 51.154 0 01-1.626-.582l-.28-.106c-8.808-3.439-13.078-8.814-12.695-15.98v-9.5c0-1.882.956-3.372 2.764-4.306l.093-.044c7.923-3.431 9.712-4.259 10.077-4.446.867-.45 1.875-.677 2.995-.677zm0 3h-.097c-.63 0-1.146.109-1.578.332-.706.363-4.14 1.883-10.211 4.512-.96.509-1.09 1.11-1.09 1.63l-.004 11.08c.294 5.05 3.772 8.833 10.576 11.535l.205.077c.703.275 1.41.527 2.109.754.744-.245 1.428-.49 2.083-.75l.309-.11c7.429-2.963 10.892-7.192 10.58-12.927l-.004-.08v-9.58c0-.52-.13-1.12-1.09-1.63l-1.186-.514-.603-.262c-3.736-1.624-7.647-3.34-8.419-3.735C21.202 5.11 20.67 5 20.05 5zm5.206 10.036a1.547 1.547 0 012.158.004 1.489 1.489 0 010 2.12L20 24.353a1.546 1.546 0 01-2.154 0l-4.724-4.658a1.489 1.489 0 010-2.12 1.546 1.546 0 012.154 0l3.645 3.596z" fill="url(#a)" fill-rule="evenodd"/></svg>