<svg xmlns="http://www.w3.org/2000/svg" viewBox="0 0 40 40" class="design-iconfont"><defs><linearGradient x1="50%" y1="0%" x2="50%" y2="100%" id="a"><stop stop-color="#7D66F2" offset="0%"/><stop stop-color="#4F3DF5" offset="100%"/></linearGradient></defs><path d="M20 2c9.024 0 16.473 6.646 17.779 15.3L38 20c0 9.94-8.06 18-18 18S2 29.94 2 20 10.06 2 20 2zm0 3.6C12.06 5.6 5.6 12.06 5.6 20S12.06 34.4 20 34.4c6.3 0 11.652-4.07 13.604-9.715a18.084 18.084 0 01-8.911 4.082c-.334.149-.7.233-1.089.233h-4.5a2.7 2.7 0 010-5.4h4.5c.944 0 1.776.486 2.258 1.225 3.6-1.024 6.613-3.375 8.438-6.476C33.476 11.185 27.38 5.6 20 5.6zm-7.12 9.9c.997 0 1.8 1.008 1.8 2.25S13.873 20 12.88 20c-.992 0-1.8-1.008-1.8-2.25s.808-2.25 1.8-2.25zm12.6 0c.993 0 1.8 1.008 1.8 2.25S26.473 20 25.48 20c-.992 0-1.8-1.004-1.8-2.25 0-1.242.808-2.25 1.8-2.25z" fill="url(#a)" fill-rule="evenodd"/></svg>