<svg xmlns="http://www.w3.org/2000/svg" viewBox="0 0 100 80" class="design-iconfont"><g fill="none"><path d="M10 40c0 12.15 9.889 22 22.087 22s22.086-9.85 22.086-22-9.888-22-22.086-22C19.889 18 10 27.85 10 40z" fill="#EA001B"/><path d="M37.938 40c0 7.86 4.21 15.123 11.043 19.053a22.162 22.162 0 0022.087 0A21.984 21.984 0 0082.11 40c0-7.86-4.21-15.123-11.043-19.053a22.162 22.162 0 00-22.087 0A21.984 21.984 0 0037.938 40z" fill="#F79F1A"/><path d="M37.98 40.041c0 6.848 3.14 12.965 8.066 17 4.984-4.035 8.168-10.188 8.168-17.082 0-6.848-3.141-12.965-8.066-17-4.984 4.035-8.169 10.187-8.169 17.082z" fill="#FF5F01"/><path d="M80 51.13h.408V52h.184v-.87H81V51h-1v.13zm1.83-.13l-.327.802h-.004L81.17 51H81v1h.144v-.714h.005l.29.714h.122l.29-.714h.005V52H82v-1h-.17z" fill="#F79F1A"/></g></svg>