<svg xmlns="http://www.w3.org/2000/svg" viewBox="0 0 40 40" class="design-iconfont"><defs><linearGradient x1="50%" y1="0%" x2="50%" y2="100%" id="a"><stop stop-color="#7D66F2" offset="0%"/><stop stop-color="#4F3DF5" offset="100%"/></linearGradient></defs><path d="M28.5 34a1.5 1.5 0 01.144 2.993L28.5 37h-17a1.5 1.5 0 01-.144-2.993L11.5 34h17zM33 4a4 4 0 014 4v18a4 4 0 01-4 4H7a4 4 0 01-4-4V8a4 4 0 014-4h26zm0 3H7a1 1 0 00-.993.883L6 8v18a1 1 0 00.883.993L7 27h26a1 1 0 00.993-.883L34 26V8a1 1 0 00-.883-.993L33 7zm-12.943 3c1.79 0 3.486.685 4.774 1.933.237.228.371.542.371.868 0 .326-.126.644-.359.876l-3.856 3.857a1.223 1.223 0 01-1.729-1.728l2.85-2.85a4.403 4.403 0 00-2.055-.506 4.43 4.43 0 00-4.424 4.424 4.43 4.43 0 004.428 4.42 4.437 4.437 0 004.334-3.531 1.225 1.225 0 011.443-.954c.66.134 1.089.782.954 1.443a6.89 6.89 0 01-2.36 3.918 6.885 6.885 0 01-4.37 1.57 6.878 6.878 0 01-6.87-6.87 6.878 6.878 0 016.87-6.87z" fill="url(#a)" fill-rule="evenodd"/></svg>