<svg xmlns="http://www.w3.org/2000/svg" viewBox="0 0 40 40" class="design-iconfont"><defs><linearGradient x1="50%" y1="0%" x2="50%" y2="100%" id="a"><stop stop-color="#7D66F2" offset="0%"/><stop stop-color="#4F3DF5" offset="100%"/></linearGradient><linearGradient x1="50%" y1="0%" x2="50%" y2="100%" id="b"><stop stop-color="#4F3DF5" offset="0%"/><stop stop-color="#7D66F2" offset="100%"/></linearGradient></defs><g stroke-width="3" fill="none" fill-rule="evenodd" stroke-linejoin="round"><path d="M32.915 17.915a1.27 1.27 0 00-.126.008 1.27 1.27 0 00-.126-.008H22.085V7.085A2.085 2.085 0 0020 5C11.73 5 5 11.73 5 20s6.726 15 15 15c8.274 0 15-6.73 15-15a2.09 2.09 0 00-2.085-2.085z" stroke="url(#a)"/><path d="M25.26 7.012a14.967 14.967 0 0011.236 5.073" stroke="url(#b)" stroke-linecap="round" transform="rotate(-159 30.878 9.549)"/></g></svg>