<svg xmlns="http://www.w3.org/2000/svg" viewBox="0 0 40 40" class="design-iconfont"><defs><linearGradient x1="50%" y1="0%" x2="50%" y2="100%" id="a"><stop stop-color="#7D66F2" offset="0%"/><stop stop-color="#4F3DF5" offset="100%"/></linearGradient></defs><path d="M27.574 38.02a2.295 2.295 0 01-2.178-1.53l-3.985-11.14-3.417 3.23.728 5.316a2.323 2.323 0 01-.637 1.93l-1.45 1.474a2.306 2.306 0 01-3.607-.4l-3.573-5.775-6.447-4.396a2.306 2.306 0 01-.353-3.516l1.44-1.477a2.3 2.3 0 012.098-.653l5.523 1.087 3.265-3.63-11.404-4.228a2.306 2.306 0 01-.845-3.777l2.897-2.95a2.302 2.302 0 012.085-.65l15.044 2.921 4.778-4.778C29.526 3.066 31.57 2 33.443 2h.01a4.407 4.407 0 013.201 1.351c.62.628 3.46 4.035-1.644 9.235l-4.851 4.842 2.585 14.933a2.314 2.314 0 01-.627 2.009l-2.904 2.958a2.293 2.293 0 01-1.639.692zM4.72 24.78l6.232 4.25c.267.18.492.416.66.69l3.426 5.533 1.12-1.138-.732-5.321c-.1-.738.16-1.48.701-1.991l3.812-3.605a2.307 2.307 0 013.757.899l3.98 11.126 2.51-2.556L27.6 17.734a2.308 2.308 0 01.642-2.027l4.937-4.935c2.24-2.281 2.855-4.385 1.638-5.62a1.844 1.844 0 00-1.373-.581h-.005c-1.154 0-2.603.823-4.082 2.32l-4.88 4.884c-.542.543-1.32.78-2.072.633L7.366 9.485l-2.51 2.554 11.387 4.223a2.307 2.307 0 01.914 3.703l-3.627 4.036a2.321 2.321 0 01-2.161.72l-5.532-1.086L4.72 24.78z" fill="url(#a)" fill-rule="evenodd"/></svg>