<svg xmlns="http://www.w3.org/2000/svg" viewBox="0 0 40 40" class="design-iconfont"><defs><linearGradient x1="50%" y1="0%" x2="50%" y2="100%" id="a"><stop stop-color="#7D66F2" offset="0%"/><stop stop-color="#4F3DF5" offset="100%"/></linearGradient></defs><path d="M24.778 4a2.869 2.869 0 012.872 2.867l-.001 6.519h5.48a2.87 2.87 0 012.866 2.7l.005.167v16.88A2.869 2.869 0 0133.129 36H16.222a2.869 2.869 0 01-2.872-2.867v-6.52H7.871a2.87 2.87 0 01-2.866-2.697L5 23.747V6.867A2.869 2.869 0 017.871 4zm2.872 19.747a2.869 2.869 0 01-2.872 2.867l-8.67-.001.001 4.535c0 1.129.876 2.069 2.003 2.149l.155.005h12.835a2.157 2.157 0 002.158-2.154V18.333c0-1.18-.957-2.155-2.158-2.155l-3.453-.001zM22.752 6.792H9.898A2.157 2.157 0 007.74 8.946V21.78c0 1.18.957 2.154 2.158 2.154h12.854a2.157 2.157 0 002.158-2.154V8.946c0-1.18-.957-2.154-2.158-2.154zm.675 6.594v2.81h-5.179a2.157 2.157 0 00-2.158 2.155v4.028h-2.74v-6.126a2.869 2.869 0 012.872-2.867h7.205z" fill="url(#a)" fill-rule="evenodd"/></svg>