<svg xmlns="http://www.w3.org/2000/svg" viewBox="0 0 40 40" class="design-iconfont"><defs><linearGradient x1="50%" y1="0%" x2="50%" y2="100%" id="a"><stop stop-color="#7D66F2" offset="0%"/><stop stop-color="#4F3DF5" offset="100%"/></linearGradient></defs><path d="M37.123 1.85c.53.135.91.538 1.05 1.038v.03a24.597 24.597 0 01-.013 12.698 24.448 24.448 0 01-6.333 10.975l-.093.102-.208.187a9.547 9.547 0 01.115 4.52 9.534 9.534 0 01-2.608 4.78l-.08.085a9.661 9.661 0 01-5.186 2.621 9.803 9.803 0 01-5.868-.912c-.702-.352-.99-1.242-.639-1.96.066-.125.148-.24.246-.343a6.689 6.689 0 001.261-1.96l.123-.321a24.445 24.445 0 01-4.678.386c-.39 0-.74-.153-1.012-.403l-6.51-6.51a1.445 1.445 0 01-.403-1.15c0-1.128.064-2.239.208-3.367.06-.394.102-.789.173-1.183l-.309.123a6.38 6.38 0 00-1.964 1.264 1.47 1.47 0 01-2.057-.072c-.106-.136-.2-.25-.25-.386a9.629 9.629 0 01-.889-5.815 9.496 9.496 0 012.688-5.271c1.346-1.383 3.031-2.24 4.78-2.626a9.902 9.902 0 014.512.115l.267-.271.021-.043h-.021A24.588 24.588 0 0124.415 1.85a24.197 24.197 0 0112.708 0zm-26.06 32.188c.343 0 .668.136.91.382.254.25.393.577.393.925a1.29 1.29 0 01-.393.92l-2.176 2.18a1.3 1.3 0 01-2.206-.942c.005-.352.148-.682.398-.911l2.163-2.172c.242-.242.56-.377.902-.382zM6.96 31.265a1.303 1.303 0 011.82-.004 1.3 1.3 0 01.394.941 1.28 1.28 0 01-.393.916l-4.923 4.94a1.28 1.28 0 01-.915.383c-.351 0-.673-.136-.91-.382a1.288 1.288 0 01-.398-.937c.004-.348.148-.67.402-.916zm18.225-26.6a21.575 21.575 0 00-9.665 5.607l-.402.394h-.008l-.394.437c-.394.467-1.037.662-1.626.424a6.692 6.692 0 00-3.797-.28 6.59 6.59 0 00-3.344 1.815v-.008a6.578 6.578 0 00-1.871 3.69 6.481 6.481 0 00.042 2.404 11.65 11.65 0 011.117-.56 10.296 10.296 0 013.269-.733c.156 0 .334.008.478.072.783.187 1.22 1.014 1.012 1.781-.271.997-.479 2.01-.623 3.016a26.28 26.28 0 00-.186 2.489l5.648 5.67a23.251 23.251 0 002.48-.195 19.811 19.811 0 003.002-.61 1.29 1.29 0 01.465-.051c.8.02 1.44.704 1.397 1.514a9.666 9.666 0 01-.724 3.308c-.165.36-.35.746-.558 1.106.787.178 1.604.2 2.413.043a6.758 6.758 0 003.61-1.815l.052-.064a6.571 6.571 0 001.811-3.337 6.6 6.6 0 00-.292-3.813c-.207-.522-.06-1.175.394-1.578l.457-.437.364-.373.051-.05a21.313 21.313 0 005.588-9.662c.91-3.393.995-6.989.207-10.42a21.764 21.764 0 00-10.367.216zM4.475 27.927c.343 0 .678.144.915.39.237.23.372.54.38.874.01.356-.126.708-.372.971l-.008.009-2.16 2.154a1.31 1.31 0 01-.926.39H2.29a1.269 1.269 0 01-.91-.394 1.302 1.302 0 010-1.84l.004-.005 2.176-2.154a1.27 1.27 0 01.915-.395zM26.342 8.266a5.427 5.427 0 015.431 5.433 5.427 5.427 0 01-5.431 5.432 5.438 5.438 0 01-5.444-5.432c0-2.986 2.442-5.433 5.444-5.433zm0 2.523c-1.605 0-2.9 1.29-2.9 2.905a2.89 2.89 0 002.9 2.893 2.9 2.9 0 002.904-2.893 2.903 2.903 0 00-2.904-2.905z" fill="url(#a)" fill-rule="evenodd"/></svg>