<svg xmlns="http://www.w3.org/2000/svg" viewBox="0 0 40 40" class="design-iconfont"><defs><linearGradient x1="50%" y1="0%" x2="50%" y2="100%" id="a"><stop stop-color="#7D66F2" offset="0%"/><stop stop-color="#4F3DF5" offset="100%"/></linearGradient></defs><path d="M25.547 14.157c6.325 0 11.452 5.112 11.453 11.42-.011 6.303-5.132 11.41-11.452 11.423h-.004c-6.325-.001-11.45-5.115-11.45-11.422 0-6.308 5.127-11.42 11.453-11.42zm-19.64 13.83c.989 0 1.79.799 1.79 1.785v2.543h2.55c.988 0 1.79.8 1.79 1.785 0 .986-.802 1.785-1.79 1.785l-.003-.002v-.001h-4.34A1.792 1.792 0 014.118 34.1v-4.328c0-.986.801-1.785 1.79-1.785zm19.64-10.27l-.003.003c-4.347.001-7.87 3.517-7.869 7.852 0 4.336 3.525 7.85 7.872 7.85 4.347 0 7.872-3.513 7.873-7.849-.008-4.332-3.528-7.842-7.872-7.849v-.007zM14.45 3a11.372 11.372 0 019.398 4.909c.51.81.295 1.876-.49 2.426a1.805 1.805 0 01-2.454-.36l-.01-.015a7.891 7.891 0 00-8.496-3.124 7.865 7.865 0 00-5.833 6.907 7.856 7.856 0 004.53 7.818 1.747 1.747 0 01.852 2.364 1.563 1.563 0 01-1.522 1.027v.002a1.585 1.585 0 01-.76-.18 11.4 11.4 0 01-6.399-12.808C4.417 6.727 9.072 2.996 14.45 3zm19.328 1.518c.99 0 1.788.802 1.79 1.785v4.328a1.792 1.792 0 01-1.79 1.785 1.792 1.792 0 01-1.788-1.785V8.088h-2.552c-.64 0-1.23-.34-1.55-.893a1.78 1.78 0 010-1.785 1.79 1.79 0 011.55-.892h4.34z" fill="url(#a)" fill-rule="evenodd"/></svg>