<svg xmlns="http://www.w3.org/2000/svg" viewBox="0 0 40 40" class="design-iconfont"><defs><linearGradient x1="50%" y1="0%" x2="50%" y2="100%" id="a"><stop stop-color="#7D66F2" offset="0%"/><stop stop-color="#4F3DF5" offset="100%"/></linearGradient></defs><path d="M29.938 34.625a1.687 1.687 0 010 3.375H10.063a1.688 1.688 0 010-3.375h19.874zM31.25 2A6.75 6.75 0 0138 8.75v16.5A6.75 6.75 0 0131.25 32H8.75A6.75 6.75 0 012 25.25V8.75A6.75 6.75 0 018.75 2h22.5zm.055 3.375H8.75a3.375 3.375 0 00-3.375 3.32V25.25a3.375 3.375 0 003.32 3.375H31.25a3.375 3.375 0 003.375-3.32V8.75a3.375 3.375 0 00-3.32-3.375zM21.71 9.809c.746.144 1.227.797 1.082 1.47l-.005.021-2.792 11.92c-.1.44-.453.798-.926.94a1.52 1.52 0 01-1.37-.25c-.374-.298-.543-.751-.443-1.19l.005-.02 2.794-11.92a1.26 1.26 0 01.603-.793 1.53 1.53 0 011.052-.178zm-6.723 2.388c.638.38.817 1.15.4 1.728l-.012.018-2.256 3.018 2.264 3.108c.42.576.246 1.348-.391 1.731l-.018.012c-.644.375-1.504.22-1.936-.351l-.013-.016-2.774-3.806a1.149 1.149 0 010-1.371l.01-.015 2.774-3.71c.434-.576 1.305-.731 1.95-.346h.002zm12.025.342l.011.017 2.774 3.805c.303.417.303.954 0 1.371l-.01.015-2.774 3.71c-.433.577-1.305.732-1.951.346-.639-.38-.817-1.15-.401-1.728l.013-.018 2.256-3.018-2.264-3.108c-.42-.576-.246-1.348.39-1.731l.02-.012c.645-.375 1.505-.22 1.936.351z" fill="url(#a)" fill-rule="evenodd"/></svg>