<svg xmlns="http://www.w3.org/2000/svg" viewBox="0 0 100 80" class="design-iconfont"><path d="M70.808 26.228A20.476 20.476 0 0063.69 25c-7.855 0-13.4 3.949-13.44 9.606-.05 4.16 3.942 6.5 6.96 7.895 3.094 1.428 4.13 2.324 4.123 3.61-.022 1.944-2.477 2.825-4.753 2.825-3.135 0-4.854-.436-7.494-1.528l-.977-.454L47 53.472c1.908.794 5.344 1.475 8.9 1.528 8.35 0 13.806-3.92 13.873-9.946.064-3.314-2.087-5.832-6.632-7.903-2.759-1.346-4.477-2.247-4.477-3.615 0-1.206 1.468-2.496 4.537-2.496 2.04-.05 4.07.33 5.954 1.112l.736.334L71 26.188l-.194.04h.002zM92.467 26h-6.234c-1.94 0-3.391.517-4.244 2.406L70 55h8.483l1.695-4.356 10.348.01c.254 1.016.998 4.346.998 4.346H99l-6.533-29zm-53.462-.993H47L42.002 54H34l5.005-29v.007zM19.133 41.78l.818 4.032 7.706-19.792H36L23.596 55h-8.325L8.462 30.456a1.62 1.62 0 00-.73-.966A33.176 33.176 0 000 26.61L.102 26H12.79c1.717.067 3.103.61 3.579 2.461l2.763 13.33v-.011zM82 44l2.877-8.202c-.036.081.596-1.696.96-2.798l.495 2.531L88 43.991h-6V44z" fill="#1741A7"/></svg>