<svg xmlns="http://www.w3.org/2000/svg" viewBox="0 0 40 40" class="design-iconfont"><defs><linearGradient x1="50%" y1="0%" x2="50%" y2="100%" id="a"><stop stop-color="#7D66F2" offset="0%"/><stop stop-color="#4F3DF5" offset="100%"/></linearGradient></defs><path d="M20 4c1.68 0 3.29.676 4.478 1.88a6.445 6.445 0 011.72 3.222c5.047 2.423 8.27 7.575 8.278 13.237v1.182c2.616.79 4.524 3.246 4.524 6.153 0 3.545-2.836 6.419-6.333 6.419a6.267 6.267 0 01-4.352-1.756 14.317 14.317 0 01-16.639-.005l.01.005a6.267 6.267 0 01-4.353 1.756C3.836 36.093 1 33.219 1 29.674c0-2.907 1.908-5.363 4.524-6.153V22.34c.008-5.665 3.234-10.82 8.287-13.24l-.011.005C14.398 6.19 16.947 4 20 4zm-5.78 9.046l-.268.176c-2.993 2.035-4.802 5.45-4.81 9.117l.001 1.184a6.317 6.317 0 012.669 1.612 6.463 6.463 0 011.855 4.539c0 .502-.057.991-.165 1.46a10.74 10.74 0 0013.012-.011l-.016.011a6.52 6.52 0 01-.165-1.46c0-2.908 1.908-5.364 4.524-6.153V22.34c-.007-3.779-1.927-7.29-5.085-9.298-.982 2.24-3.198 3.796-5.772 3.796-2.574 0-4.79-1.556-5.78-3.791zm18.447 13.877c-1.5 0-2.715 1.232-2.715 2.751 0 1.52 1.216 2.75 2.715 2.75 1.499 0 2.714-1.23 2.714-2.75s-1.215-2.75-2.714-2.75zm-25.334 0c-1.499 0-2.714 1.232-2.714 2.751 0 1.52 1.215 2.75 2.714 2.75 1.5 0 2.715-1.23 2.715-2.75s-1.216-2.75-2.715-2.75zM20 7.668c-1.5 0-2.714 1.231-2.714 2.75 0 1.52 1.215 2.751 2.714 2.751 1.5 0 2.714-1.231 2.714-2.75 0-1.52-1.215-2.751-2.714-2.751z" fill="url(#a)" fill-rule="evenodd"/></svg>